{
	"asset":{
		"generator":"Khronos glTF Blender I/O v4.0.44",
		"version":"2.0"
	},
	"scene":0,
	"scenes":[
		{
			"name":"Scene",
			"nodes":[
				0
			]
		}
	],
	"nodes":[
		{
			"mesh":0,
			"name":"\u7403",
			"scale":[
				0.4375399351119995,
				0.7700667381286621,
				3.0874862670898438
			]
		}
	],
	"meshes":[
		{
			"name":"\u7403.001",
			"primitives":[
				{
					"attributes":{
						"POSITION":0,
						"NORMAL":1,
						"TEXCOORD_0":2
					},
					"indices":3
				}
			]
		}
	],
	"accessors":[
		{
			"bufferView":0,
			"componentType":5126,
			"count":687,
			"max":[
				0.9999997019767761,
				1,
				1.4622769355773926
			],
			"min":[
				-0.9999990463256836,
				-1,
				-1
			],
			"type":"VEC3"
		},
		{
			"bufferView":1,
			"componentType":5126,
			"count":687,
			"type":"VEC3"
		},
		{
			"bufferView":2,
			"componentType":5126,
			"count":687,
			"type":"VEC2"
		},
		{
			"bufferView":3,
			"componentType":5123,
			"count":3066,
			"type":"SCALAR"
		}
	],
	"bufferViews":[
		{
			"buffer":0,
			"byteLength":8244,
			"byteOffset":0,
			"target":34962
		},
		{
			"buffer":0,
			"byteLength":8244,
			"byteOffset":8244,
			"target":34962
		},
		{
			"buffer":0,
			"byteLength":5496,
			"byteOffset":16488,
			"target":34962
		},
		{
			"buffer":0,
			"byteLength":6132,
			"byteOffset":21984,
			"target":34963
		}
	],
	"buffers":[
		{
			"byteLength":28116,
			"uri":"Fish.bin"
		}
	]
}
