{
	"asset":{
		"generator":"Khronos glTF Blender I/O v3.5.30",
		"version":"2.0"
	},
	"scene":0,
	"scenes":[
		{
			"name":"Scene",
			"nodes":[
				1
			]
		}
	],
	"nodes":[
		{
			"mesh":0,
			"name":"Cannon"
		},
		{
			"children":[
				0
			],
			"mesh":1,
			"name":"ship",
			"rotation":[
				0,
				-0.7071068286895752,
				0.7071068286895752,
				3.090862321641907e-08
			]
		}
	],
	"animations":[
		{
			"channels":[
				{
					"sampler":0,
					"target":{
						"node":1,
						"path":"translation"
					}
				}
			],
			"name":"shipAction",
			"samplers":[
				{
					"input":8,
					"interpolation":"LINEAR",
					"output":9
				}
			]
		}
	],
	"materials":[
		{
			"doubleSided":true,
			"name":"Cannon.001",
			"pbrMetallicRoughness":{
				"baseColorFactor":[
					0.800000011920929,
					0.800000011920929,
					0.800000011920929,
					1
				],
				"metallicFactor":0,
				"roughnessFactor":0.5
			}
		},
		{
			"doubleSided":true,
			"name":"Ship.001",
			"pbrMetallicRoughness":{
				"baseColorTexture":{
					"index":0
				},
				"metallicFactor":0,
				"roughnessFactor":0.5
			}
		}
	],
	"meshes":[
		{
			"name":"Cannon.001",
			"primitives":[
				{
					"attributes":{
						"POSITION":0,
						"TEXCOORD_0":1,
						"NORMAL":2
					},
					"indices":3,
					"material":0
				}
			]
		},
		{
			"name":"ship.001",
			"primitives":[
				{
					"attributes":{
						"POSITION":4,
						"TEXCOORD_0":5,
						"NORMAL":6
					},
					"indices":7,
					"material":1
				}
			]
		}
	],
	"textures":[
		{
			"sampler":0,
			"source":0
		}
	],
	"images":[
		{
			"mimeType":"image/png",
			"name":"ship.png",
			"uri":"ship.png"
		}
	],
	"accessors":[
		{
			"bufferView":0,
			"componentType":5126,
			"count":625,
			"max":[
				0.10000000149011612,
				0.40319499373435974,
				-0.0352960005402565
			],
			"min":[
				-0.10000000149011612,
				-0.10000000149011612,
				-0.23529599606990814
			],
			"type":"VEC3"
		},
		{
			"bufferView":1,
			"componentType":5126,
			"count":625,
			"type":"VEC2"
		},
		{
			"bufferView":2,
			"componentType":5126,
			"count":625,
			"type":"VEC3"
		},
		{
			"bufferView":3,
			"componentType":5123,
			"count":3072,
			"type":"SCALAR"
		},
		{
			"bufferView":4,
			"componentType":5126,
			"count":111,
			"max":[
				0.48106101155281067,
				0.15970399975776672,
				0.02583800069987774
			],
			"min":[
				-0.48010799288749695,
				-0.15989899635314941,
				-0.09942100197076797
			],
			"type":"VEC3"
		},
		{
			"bufferView":5,
			"componentType":5126,
			"count":111,
			"type":"VEC2"
		},
		{
			"bufferView":6,
			"componentType":5126,
			"count":111,
			"type":"VEC3"
		},
		{
			"bufferView":7,
			"componentType":5123,
			"count":120,
			"type":"SCALAR"
		},
		{
			"bufferView":8,
			"componentType":5126,
			"count":360,
			"max":[
				6
			],
			"min":[
				0.016666666666666666
			],
			"type":"SCALAR"
		},
		{
			"bufferView":9,
			"componentType":5126,
			"count":360,
			"type":"VEC3"
		}
	],
	"bufferViews":[
		{
			"buffer":0,
			"byteLength":7500,
			"byteOffset":0,
			"target":34962
		},
		{
			"buffer":0,
			"byteLength":5000,
			"byteOffset":7500,
			"target":34962
		},
		{
			"buffer":0,
			"byteLength":7500,
			"byteOffset":12500,
			"target":34962
		},
		{
			"buffer":0,
			"byteLength":6144,
			"byteOffset":20000,
			"target":34963
		},
		{
			"buffer":0,
			"byteLength":1332,
			"byteOffset":26144,
			"target":34962
		},
		{
			"buffer":0,
			"byteLength":888,
			"byteOffset":27476,
			"target":34962
		},
		{
			"buffer":0,
			"byteLength":1332,
			"byteOffset":28364,
			"target":34962
		},
		{
			"buffer":0,
			"byteLength":240,
			"byteOffset":29696,
			"target":34963
		},
		{
			"buffer":0,
			"byteLength":1440,
			"byteOffset":29936
		},
		{
			"buffer":0,
			"byteLength":4320,
			"byteOffset":31376
		}
	],
	"samplers":[
		{
			"magFilter":9729,
			"minFilter":9987
		}
	],
	"buffers":[
		{
			"byteLength":35696,
			"uri":"Player.bin"
		}
	]
}
