# Blender 3.5.0
# www.blender.org
mtllib enemy_arm.mtl
o 立方体
v 0.163810 -0.163810 0.847265
v 0.163810 -0.163810 -0.847265
v 0.163810 0.163810 0.847265
v 0.163810 0.163810 -0.847265
v -0.163810 -0.163810 0.847265
v -0.163810 -0.163810 -0.847265
v -0.163810 0.163810 0.847265
v -0.163810 0.163810 -0.847265
v 0.321835 -0.321835 0.000000
v 0.321835 0.321835 -0.000000
v -0.321835 0.321835 -0.000000
v -0.321835 -0.321835 0.000000
v 0.000000 -0.000000 -0.696628
v 0.000000 0.000000 0.696628
v 0.000000 0.000000 1.750973
v 0.000000 -0.000000 -1.750973
vn 0.6769 -0.0000 0.7361
vn -0.0000 0.6769 0.7361
vn -0.6769 -0.0000 0.7361
vn -0.0000 -0.6769 0.7361
vn -0.0000 -0.9840 0.1784
vn -0.0000 0.9840 -0.1784
vn -0.0000 -0.9078 0.4194
vn -0.9078 -0.0000 0.4194
vn -0.0000 0.9078 0.4194
vn 0.9078 -0.0000 0.4194
vn -0.0000 -0.9078 -0.4194
vn -0.9078 -0.0000 -0.4194
vn -0.0000 0.9078 -0.4194
vn 0.9078 -0.0000 -0.4194
vn 0.6769 -0.0000 -0.7361
vn -0.0000 0.6769 -0.7361
vn -0.6769 -0.0000 -0.7361
vn -0.0000 -0.6769 -0.7361
vn -0.9840 -0.0000 0.1784
vn -0.0000 0.9840 0.1784
vn 0.9840 -0.0000 -0.1784
vn 0.9840 -0.0000 0.1784
vn -0.0000 -0.9840 -0.1784
vn -0.9840 -0.0000 -0.1784
vt 0.375000 1.000000
vt 0.375000 0.000000
vt 0.625000 0.000000
vt 0.625000 1.000000
vt 0.375000 0.250000
vt 0.625000 0.250000
vt 0.375000 0.750000
vt 0.625000 0.750000
vt 0.375000 0.500000
vt 0.625000 0.500000
vt 0.500000 1.000000
vt 0.500000 0.000000
vt 0.500000 0.250000
vt 0.500000 0.500000
vt 0.500000 0.750000
vt 0.562500 0.000000
vt 0.562500 1.000000
vt 0.562500 0.750000
vt 0.562500 0.500000
vt 0.562500 0.250000
vt 0.437500 0.000000
vt 0.437500 0.250000
vt 0.437500 0.500000
vt 0.437500 0.750000
vt 0.437500 1.000000
vt 0.375000 0.750000
vt 0.375000 0.500000
vt 0.375000 0.250000
vt 0.375000 0.000000
vt 0.625000 0.500000
vt 0.625000 0.250000
vt 0.625000 1.000000
vt 0.625000 0.750000
s 0
usemtl マテリアル
f 13/16/1 2/3/1 4/6/1
f 13/20/2 4/6/2 8/10/2
f 13/19/3 8/10/3 6/8/3
f 13/18/4 6/8/4 2/4/4
f 5/7/5 1/1/5 15/26/5
f 8/10/6 4/6/6 16/30/6
f 14/24/7 12/15/7 9/11/7
f 14/23/8 11/14/8 12/15/8
f 14/22/9 10/13/9 11/14/9
f 14/21/10 9/12/10 10/13/10
f 12/15/11 13/17/11 9/11/11
f 11/14/12 13/18/12 12/15/12
f 10/13/13 13/19/13 11/14/13
f 9/12/14 13/20/14 10/13/14
f 1/2/15 14/22/15 3/5/15
f 3/5/16 14/23/16 7/9/16
f 7/9/17 14/24/17 5/7/17
f 5/7/18 14/25/18 1/1/18
f 7/9/19 5/7/19 15/27/19
f 3/5/20 7/9/20 15/28/20
f 4/6/21 2/3/21 16/31/21
f 1/2/22 3/5/22 15/29/22
f 2/4/23 6/8/23 16/32/23
f 6/8/24 8/10/24 16/33/24
