# Blender 3.5.0
# www.blender.org
mtllib bullet.mtl
o Bullet
v 0.040085 -0.073638 0.129531
v -0.000591 0.020078 0.154679
v -0.033536 -0.088265 0.125906
v -0.045318 -0.149261 0.005028
v -0.020824 0.151975 0.006207
v -0.068840 0.095918 0.106093
v -0.125857 -0.031789 0.093216
v -0.113998 -0.096223 0.033023
v -0.149789 -0.022894 -0.029916
v -0.137354 0.080735 -0.027638
v -0.083352 -0.108973 -0.076735
v -0.029273 0.035594 -0.151910
v -0.084798 -0.036216 -0.129133
v -0.072034 0.134896 -0.045646
v 0.034279 -0.108028 -0.112358
v 0.036707 0.078183 -0.129181
v 0.098838 -0.015625 -0.118032
v 0.079070 0.114758 -0.075995
v 0.132232 -0.074482 -0.038841
v 0.046444 -0.147555 0.000798
v 0.148443 0.038730 -0.032318
v 0.112746 0.098696 0.040180
v 0.035040 0.146659 0.036578
v 0.128890 -0.031348 0.085642
v 0.072409 0.064249 0.124242
v 0.074943 -0.133369 0.046176
vn 0.0308 -0.9593 0.2806
vn -0.3964 -0.1212 0.9101
vn -0.5693 -0.6147 0.5459
vn -0.5053 0.8332 0.2247
vn -0.9738 0.1125 0.1974
vn -0.8223 -0.5442 -0.1664
vn -0.8244 0.1111 -0.5550
vn 0.4162 -0.0628 0.9071
vn -0.5744 0.4699 -0.6703
vn -0.1127 -0.9111 -0.3965
vn -0.0330 -0.2789 -0.9598
vn -0.2337 -0.5713 -0.7868
vn 0.0023 -0.9440 -0.3300
vn 0.2822 0.0733 -0.9565
vn 0.0522 0.9321 -0.3585
vn 0.6264 -0.4756 -0.6176
vn 0.5185 -0.7884 -0.3311
vn 0.7254 0.3084 -0.6154
vn 0.8875 -0.1012 -0.4495
vn 0.5261 0.8497 -0.0350
vn 0.9863 -0.1457 0.0770
vn 0.9349 0.2149 0.2826
vn 0.4339 0.7414 0.5120
vn 0.0813 0.7433 0.6640
vn 0.0159 0.5494 0.8354
vn 0.0036 -0.2577 0.9662
vn -0.0373 -0.8907 0.4531
vn -0.1483 0.8911 0.4288
vn -0.4786 0.1260 0.8690
vn -0.4297 -0.7886 0.4398
vn -0.8520 0.3403 0.3979
vn -0.5882 0.7802 0.2128
vn -0.9341 -0.3199 0.1584
vn -0.6308 -0.7711 -0.0865
vn -0.8020 -0.3595 -0.4771
vn -0.6647 0.2964 -0.6858
vn -0.0035 0.8252 -0.5648
vn -0.1924 0.6772 -0.7102
vn 0.1811 -0.1858 -0.9658
vn 0.6184 0.3245 -0.7157
vn 0.1974 0.9607 -0.1950
vn 0.7696 0.6236 -0.1369
vn 0.6056 -0.7842 -0.1352
vn 0.8315 -0.5177 0.2017
vn 0.8166 0.2782 0.5058
vn 0.5653 -0.5401 0.6234
vn 0.1250 -0.7810 0.6119
vn 0.4709 -0.0767 0.8789
vt 0.795836 0.343472
vt 0.751954 0.543625
vt 0.702285 0.310791
vt 0.509766 0.119247
vt 0.497262 0.929275
vt 0.660759 0.710870
vt 0.598287 0.442641
vt 0.546046 0.282548
vt 0.467343 0.453258
vt 0.465510 0.641492
vt 0.382686 0.259074
vt 0.285036 0.563230
vt 0.343386 0.427151
vt 0.405024 0.807516
vt 0.197367 0.270960
vt 0.203846 0.666970
vt 0.139508 0.469402
vt 0.109747 0.761588
vt 0.052408 0.346826
vt 0.992171 0.399333
vt 0.880844 0.092473
vt 0.052026 0.103622
vt 0.996289 0.584928
vt 0.035290 0.570133
vt 0.000000 0.784407
vt 0.942053 0.718160
vt 0.877808 0.875529
vt 0.031154 0.911618
vt 0.907746 0.434550
vt 0.835833 0.635807
vt 0.000000 0.273040
vt 0.885585 0.223809
s 0
usemtl マテリアル.006
f 26/32/1 4/4/1 20/21/1
f 2/2/2 7/7/2 3/3/2
f 7/7/3 8/8/3 3/3/3
f 5/5/4 14/14/4 6/6/4
f 7/7/5 10/10/5 9/9/5
f 8/8/6 9/9/6 11/11/6
f 9/9/7 10/10/7 13/13/7
f 1/1/8 25/30/8 2/2/8
f 10/10/9 14/14/9 12/12/9
f 11/11/10 15/15/10 4/4/10
f 12/12/11 15/15/11 13/13/11
f 13/13/12 15/15/12 11/11/12
f 15/15/13 20/22/13 4/4/13
f 12/12/14 16/16/14 17/17/14
f 14/14/15 5/5/15 18/18/15
f 15/15/16 17/17/16 19/19/16
f 15/15/17 19/19/17 20/22/17
f 17/17/18 18/18/18 21/24/18
f 21/24/19 19/19/19 17/17/19
f 18/18/20 23/28/20 22/25/20
f 21/23/21 24/29/21 19/20/21
f 21/23/22 22/26/22 24/29/22
f 23/27/23 25/30/23 22/26/23
f 25/30/24 23/27/24 6/6/24
f 25/30/25 6/6/25 2/2/25
f 2/2/26 3/3/26 1/1/26
f 26/32/27 3/3/27 4/4/27
f 23/27/28 5/5/28 6/6/28
f 2/2/29 6/6/29 7/7/29
f 3/3/30 8/8/30 4/4/30
f 7/7/31 6/6/31 10/10/31
f 10/10/32 6/6/32 14/14/32
f 8/8/33 7/7/33 9/9/33
f 4/4/34 8/8/34 11/11/34
f 9/9/35 13/13/35 11/11/35
f 13/13/36 10/10/36 12/12/36
f 14/14/37 18/18/37 16/16/37
f 12/12/38 14/14/38 16/16/38
f 12/12/39 17/17/39 15/15/39
f 17/17/40 16/16/40 18/18/40
f 5/5/41 23/28/41 18/18/41
f 21/24/42 18/18/42 22/25/42
f 20/22/43 19/19/43 26/31/43
f 26/32/44 19/20/44 24/29/44
f 24/29/45 22/26/45 25/30/45
f 24/29/46 1/1/46 26/32/46
f 26/32/47 1/1/47 3/3/47
f 1/1/48 24/29/48 25/30/48
