{
	"asset":{
		"generator":"Khronos glTF Blender I/O v4.0.44",
		"version":"2.0"
	},
	"scene":0,
	"scenes":[
		{
			"name":"Scene",
			"nodes":[
				4
			]
		}
	],
	"nodes":[
		{
			"mesh":0,
			"name":"leftarm",
			"scale":[
				0.4000000059604645,
				0.4000000059604645,
				0.4000000059604645
			],
			"translation":[
				0,
				-0.21645326912403107,
				-1.559999942779541
			]
		},
		{
			"mesh":1,
			"name":"leftleg",
			"scale":[
				0.4000000059604645,
				0.20000000298023224,
				0.4000000059604645
			],
			"translation":[
				0,
				-1.0600000619888306,
				-0.4000000059604645
			]
		},
		{
			"mesh":2,
			"name":"rightarm",
			"scale":[
				0.4000000059604645,
				0.4000000059604645,
				0.4000000059604645
			],
			"translation":[
				0,
				-0.21645399928092957,
				1.559999942779541
			]
		},
		{
			"mesh":3,
			"name":"rightleg",
			"scale":[
				0.4000000059604645,
				0.20000000298023224,
				0.4000000059604645
			],
			"translation":[
				0,
				-1.0600000619888306,
				0.3999999761581421
			]
		},
		{
			"children":[
				0,
				1,
				2,
				3
			],
			"mesh":4,
			"name":"\u7403",
			"scale":[
				0.5,
				0.5,
				0.5
			]
		}
	],
	"animations":[
		{
			"channels":[
				{
					"sampler":0,
					"target":{
						"node":0,
						"path":"translation"
					}
				}
			],
			"name":"leftarmAction",
			"samplers":[
				{
					"input":18,
					"interpolation":"LINEAR",
					"output":19
				}
			]
		},
		{
			"channels":[
				{
					"sampler":0,
					"target":{
						"node":2,
						"path":"translation"
					}
				}
			],
			"name":"rightarmAction",
			"samplers":[
				{
					"input":20,
					"interpolation":"LINEAR",
					"output":21
				}
			]
		}
	],
	"meshes":[
		{
			"name":"\u7403.002",
			"primitives":[
				{
					"attributes":{
						"POSITION":0,
						"NORMAL":1,
						"TEXCOORD_0":2
					},
					"indices":3
				}
			]
		},
		{
			"name":"\u7403.005",
			"primitives":[
				{
					"attributes":{
						"POSITION":4,
						"NORMAL":5,
						"TEXCOORD_0":6
					},
					"indices":7
				}
			]
		},
		{
			"name":"\u7403.001",
			"primitives":[
				{
					"attributes":{
						"POSITION":8,
						"NORMAL":9,
						"TEXCOORD_0":10
					},
					"indices":3
				}
			]
		},
		{
			"name":"\u7403.006",
			"primitives":[
				{
					"attributes":{
						"POSITION":11,
						"NORMAL":12,
						"TEXCOORD_0":13
					},
					"indices":7
				}
			]
		},
		{
			"name":"\u7403",
			"primitives":[
				{
					"attributes":{
						"POSITION":14,
						"NORMAL":15,
						"TEXCOORD_0":16
					},
					"indices":17
				}
			]
		}
	],
	"accessors":[
		{
			"bufferView":0,
			"componentType":5126,
			"count":559,
			"max":[
				0.9999997019767761,
				1,
				0.9999993443489075
			],
			"min":[
				-0.9999990463256836,
				-1,
				-1
			],
			"type":"VEC3"
		},
		{
			"bufferView":1,
			"componentType":5126,
			"count":559,
			"type":"VEC3"
		},
		{
			"bufferView":2,
			"componentType":5126,
			"count":559,
			"type":"VEC2"
		},
		{
			"bufferView":3,
			"componentType":5123,
			"count":2880,
			"type":"SCALAR"
		},
		{
			"bufferView":4,
			"componentType":5126,
			"count":559,
			"max":[
				0.9999997019767761,
				1,
				0.9999993443489075
			],
			"min":[
				-0.9999990463256836,
				-1,
				-1
			],
			"type":"VEC3"
		},
		{
			"bufferView":5,
			"componentType":5126,
			"count":559,
			"type":"VEC3"
		},
		{
			"bufferView":6,
			"componentType":5126,
			"count":559,
			"type":"VEC2"
		},
		{
			"bufferView":7,
			"componentType":5123,
			"count":2880,
			"type":"SCALAR"
		},
		{
			"bufferView":8,
			"componentType":5126,
			"count":559,
			"max":[
				0.9999997019767761,
				1,
				0.9999993443489075
			],
			"min":[
				-0.9999990463256836,
				-1,
				-1
			],
			"type":"VEC3"
		},
		{
			"bufferView":9,
			"componentType":5126,
			"count":559,
			"type":"VEC3"
		},
		{
			"bufferView":10,
			"componentType":5126,
			"count":559,
			"type":"VEC2"
		},
		{
			"bufferView":11,
			"componentType":5126,
			"count":559,
			"max":[
				0.9999997019767761,
				1,
				0.9999993443489075
			],
			"min":[
				-0.9999990463256836,
				-1,
				-1
			],
			"type":"VEC3"
		},
		{
			"bufferView":12,
			"componentType":5126,
			"count":559,
			"type":"VEC3"
		},
		{
			"bufferView":13,
			"componentType":5126,
			"count":559,
			"type":"VEC2"
		},
		{
			"bufferView":14,
			"componentType":5126,
			"count":559,
			"max":[
				0.9999997019767761,
				1,
				0.9999993443489075
			],
			"min":[
				-0.9999990463256836,
				-1,
				-1
			],
			"type":"VEC3"
		},
		{
			"bufferView":15,
			"componentType":5126,
			"count":559,
			"type":"VEC3"
		},
		{
			"bufferView":16,
			"componentType":5126,
			"count":559,
			"type":"VEC2"
		},
		{
			"bufferView":17,
			"componentType":5123,
			"count":2880,
			"type":"SCALAR"
		},
		{
			"bufferView":18,
			"componentType":5126,
			"count":200,
			"max":[
				3.3333333333333335
			],
			"min":[
				0.016666666666666666
			],
			"type":"SCALAR"
		},
		{
			"bufferView":19,
			"componentType":5126,
			"count":200,
			"type":"VEC3"
		},
		{
			"bufferView":20,
			"componentType":5126,
			"count":201,
			"max":[
				3.3333333333333335
			],
			"min":[
				0
			],
			"type":"SCALAR"
		},
		{
			"bufferView":21,
			"componentType":5126,
			"count":201,
			"type":"VEC3"
		}
	],
	"bufferViews":[
		{
			"buffer":0,
			"byteLength":6708,
			"byteOffset":0,
			"target":34962
		},
		{
			"buffer":0,
			"byteLength":6708,
			"byteOffset":6708,
			"target":34962
		},
		{
			"buffer":0,
			"byteLength":4472,
			"byteOffset":13416,
			"target":34962
		},
		{
			"buffer":0,
			"byteLength":5760,
			"byteOffset":17888,
			"target":34963
		},
		{
			"buffer":0,
			"byteLength":6708,
			"byteOffset":23648,
			"target":34962
		},
		{
			"buffer":0,
			"byteLength":6708,
			"byteOffset":30356,
			"target":34962
		},
		{
			"buffer":0,
			"byteLength":4472,
			"byteOffset":37064,
			"target":34962
		},
		{
			"buffer":0,
			"byteLength":5760,
			"byteOffset":41536,
			"target":34963
		},
		{
			"buffer":0,
			"byteLength":6708,
			"byteOffset":47296,
			"target":34962
		},
		{
			"buffer":0,
			"byteLength":6708,
			"byteOffset":54004,
			"target":34962
		},
		{
			"buffer":0,
			"byteLength":4472,
			"byteOffset":60712,
			"target":34962
		},
		{
			"buffer":0,
			"byteLength":6708,
			"byteOffset":65184,
			"target":34962
		},
		{
			"buffer":0,
			"byteLength":6708,
			"byteOffset":71892,
			"target":34962
		},
		{
			"buffer":0,
			"byteLength":4472,
			"byteOffset":78600,
			"target":34962
		},
		{
			"buffer":0,
			"byteLength":6708,
			"byteOffset":83072,
			"target":34962
		},
		{
			"buffer":0,
			"byteLength":6708,
			"byteOffset":89780,
			"target":34962
		},
		{
			"buffer":0,
			"byteLength":4472,
			"byteOffset":96488,
			"target":34962
		},
		{
			"buffer":0,
			"byteLength":5760,
			"byteOffset":100960,
			"target":34963
		},
		{
			"buffer":0,
			"byteLength":800,
			"byteOffset":106720
		},
		{
			"buffer":0,
			"byteLength":2400,
			"byteOffset":107520
		},
		{
			"buffer":0,
			"byteLength":804,
			"byteOffset":109920
		},
		{
			"buffer":0,
			"byteLength":2412,
			"byteOffset":110724
		}
	],
	"buffers":[
		{
			"byteLength":113136,
			"uri":"Player.bin"
		}
	]
}
