{
	"asset":{
		"generator":"Khronos glTF Blender I/O v3.5.30",
		"version":"2.0"
	},
	"scene":0,
	"scenes":[
		{
			"name":"Scene",
			"nodes":[
				4
			]
		}
	],
	"nodes":[
		{
			"mesh":0,
			"name":"\u7403.001"
		},
		{
			"mesh":1,
			"name":"\u7403.002"
		},
		{
			"mesh":2,
			"name":"\u7403.003"
		},
		{
			"mesh":3,
			"name":"\u7403.004"
		},
		{
			"children":[
				0,
				1,
				2,
				3
			],
			"mesh":4,
			"name":"\u7403",
			"rotation":[
				0.5,
				0.5,
				-0.5,
				0.5000000596046448
			]
		}
	],
	"animations":[
		{
			"channels":[
				{
					"sampler":0,
					"target":{
						"node":4,
						"path":"translation"
					}
				},
				{
					"sampler":1,
					"target":{
						"node":4,
						"path":"rotation"
					}
				}
			],
			"name":"\u7403Action",
			"samplers":[
				{
					"input":16,
					"interpolation":"LINEAR",
					"output":17
				},
				{
					"input":16,
					"interpolation":"LINEAR",
					"output":18
				}
			]
		}
	],
	"meshes":[
		{
			"name":"\u7403.001",
			"primitives":[
				{
					"attributes":{
						"POSITION":0,
						"TEXCOORD_0":1,
						"NORMAL":2
					},
					"indices":3
				}
			]
		},
		{
			"name":"\u7403.002",
			"primitives":[
				{
					"attributes":{
						"POSITION":4,
						"TEXCOORD_0":5,
						"NORMAL":6
					},
					"indices":3
				}
			]
		},
		{
			"name":"\u7403.003",
			"primitives":[
				{
					"attributes":{
						"POSITION":7,
						"TEXCOORD_0":8,
						"NORMAL":9
					},
					"indices":3
				}
			]
		},
		{
			"name":"\u7403.004",
			"primitives":[
				{
					"attributes":{
						"POSITION":10,
						"TEXCOORD_0":11,
						"NORMAL":12
					},
					"indices":3
				}
			]
		},
		{
			"name":"\u7403",
			"primitives":[
				{
					"attributes":{
						"POSITION":13,
						"TEXCOORD_0":14,
						"NORMAL":15
					},
					"indices":3
				}
			]
		}
	],
	"accessors":[
		{
			"bufferView":0,
			"componentType":5126,
			"count":559,
			"max":[
				0.5,
				2,
				0.800000011920929
			],
			"min":[
				-0.5,
				1,
				-0.20000000298023224
			],
			"type":"VEC3"
		},
		{
			"bufferView":1,
			"componentType":5126,
			"count":559,
			"type":"VEC2"
		},
		{
			"bufferView":2,
			"componentType":5126,
			"count":559,
			"type":"VEC3"
		},
		{
			"bufferView":3,
			"componentType":5123,
			"count":2880,
			"type":"SCALAR"
		},
		{
			"bufferView":4,
			"componentType":5126,
			"count":559,
			"max":[
				0.5,
				-1,
				0.800000011920929
			],
			"min":[
				-0.5,
				-2,
				-0.20000000298023224
			],
			"type":"VEC3"
		},
		{
			"bufferView":5,
			"componentType":5126,
			"count":559,
			"type":"VEC2"
		},
		{
			"bufferView":6,
			"componentType":5126,
			"count":559,
			"type":"VEC3"
		},
		{
			"bufferView":7,
			"componentType":5126,
			"count":559,
			"max":[
				0.5,
				1.0780069828033447,
				1.3818800449371338
			],
			"min":[
				-0.5,
				0.07800699770450592,
				0.8618800044059753
			],
			"type":"VEC3"
		},
		{
			"bufferView":8,
			"componentType":5126,
			"count":559,
			"type":"VEC2"
		},
		{
			"bufferView":9,
			"componentType":5126,
			"count":559,
			"type":"VEC3"
		},
		{
			"bufferView":10,
			"componentType":5126,
			"count":559,
			"max":[
				0.5,
				-0.07800699770450592,
				1.3818800449371338
			],
			"min":[
				-0.5,
				-1.0780069828033447,
				0.8618800044059753
			],
			"type":"VEC3"
		},
		{
			"bufferView":11,
			"componentType":5126,
			"count":559,
			"type":"VEC2"
		},
		{
			"bufferView":12,
			"componentType":5126,
			"count":559,
			"type":"VEC3"
		},
		{
			"bufferView":13,
			"componentType":5126,
			"count":559,
			"max":[
				0.9999989867210388,
				1,
				1
			],
			"min":[
				-1,
				-0.9999989867210388,
				-1
			],
			"type":"VEC3"
		},
		{
			"bufferView":14,
			"componentType":5126,
			"count":559,
			"type":"VEC2"
		},
		{
			"bufferView":15,
			"componentType":5126,
			"count":559,
			"type":"VEC3"
		},
		{
			"bufferView":16,
			"componentType":5126,
			"count":60,
			"max":[
				1
			],
			"min":[
				0.016666666666666666
			],
			"type":"SCALAR"
		},
		{
			"bufferView":17,
			"componentType":5126,
			"count":60,
			"type":"VEC3"
		},
		{
			"bufferView":18,
			"componentType":5126,
			"count":60,
			"type":"VEC4"
		}
	],
	"bufferViews":[
		{
			"buffer":0,
			"byteLength":6708,
			"byteOffset":0,
			"target":34962
		},
		{
			"buffer":0,
			"byteLength":4472,
			"byteOffset":6708,
			"target":34962
		},
		{
			"buffer":0,
			"byteLength":6708,
			"byteOffset":11180,
			"target":34962
		},
		{
			"buffer":0,
			"byteLength":5760,
			"byteOffset":17888,
			"target":34963
		},
		{
			"buffer":0,
			"byteLength":6708,
			"byteOffset":23648,
			"target":34962
		},
		{
			"buffer":0,
			"byteLength":4472,
			"byteOffset":30356,
			"target":34962
		},
		{
			"buffer":0,
			"byteLength":6708,
			"byteOffset":34828,
			"target":34962
		},
		{
			"buffer":0,
			"byteLength":6708,
			"byteOffset":41536,
			"target":34962
		},
		{
			"buffer":0,
			"byteLength":4472,
			"byteOffset":48244,
			"target":34962
		},
		{
			"buffer":0,
			"byteLength":6708,
			"byteOffset":52716,
			"target":34962
		},
		{
			"buffer":0,
			"byteLength":6708,
			"byteOffset":59424,
			"target":34962
		},
		{
			"buffer":0,
			"byteLength":4472,
			"byteOffset":66132,
			"target":34962
		},
		{
			"buffer":0,
			"byteLength":6708,
			"byteOffset":70604,
			"target":34962
		},
		{
			"buffer":0,
			"byteLength":6708,
			"byteOffset":77312,
			"target":34962
		},
		{
			"buffer":0,
			"byteLength":4472,
			"byteOffset":84020,
			"target":34962
		},
		{
			"buffer":0,
			"byteLength":6708,
			"byteOffset":88492,
			"target":34962
		},
		{
			"buffer":0,
			"byteLength":240,
			"byteOffset":95200
		},
		{
			"buffer":0,
			"byteLength":720,
			"byteOffset":95440
		},
		{
			"buffer":0,
			"byteLength":960,
			"byteOffset":96160
		}
	],
	"buffers":[
		{
			"byteLength":97120,
			"uri":"PlayerPunch.bin"
		}
	]
}
